<svg width="17" height="19" fill="none" xmlns="http://www.w3.org/2000/svg">
  <path d="M6.04 15.84a.52.52 0 0 1-.37-.13.5.5 0 0 1-.15-.36l-.25-8.87c0-.14.04-.26.13-.35.1-.1.23-.14.39-.14.15 0 .27.04.36.13.1.1.15.2.15.35l.26 8.88c0 .15-.05.27-.14.36a.52.52 0 0 1-.38.13Zm2.46 0a.55.55 0 0 1-.38-.13.47.47 0 0 1-.15-.36V6.48c0-.14.05-.26.15-.35.1-.1.23-.14.38-.14.16 0 .3.05.39.14.1.09.15.2.15.35v8.87c0 .15-.05.27-.15.36a.57.57 0 0 1-.39.13Zm2.47 0a.53.53 0 0 1-.39-.13.46.46 0 0 1-.13-.36l.25-8.87a.5.5 0 0 1 .15-.36.5.5 0 0 1 .36-.13c.16 0 .3.05.39.14.09.09.13.2.13.35l-.25 8.87a.5.5 0 0 1-.15.36.51.51 0 0 1-.36.13ZM4.86 3.82V1.96c0-.6.18-1.06.54-1.4.37-.36.88-.53 1.51-.53h3.16c.64 0 1.14.17 1.5.52.37.35.56.82.56 1.41v1.86H10.8V2.05a.73.73 0 0 0-.23-.57.83.83 0 0 0-.6-.21H7a.86.86 0 0 0-.61.21.75.75 0 0 0-.22.57v1.77H4.86Zm-3.77.67a.63.63 0 0 1-.62-.63c0-.17.06-.31.18-.44a.6.6 0 0 1 .44-.19h14.83c.17 0 .31.06.43.19a.6.6 0 0 1 .19.44c0 .17-.07.32-.19.44a.57.57 0 0 1-.43.19H1.1Zm3.6 14.03c-.59 0-1.07-.18-1.44-.54a2 2 0 0 1-.6-1.42L2.08 4.33h1.3l.59 12.08c.01.25.1.45.26.61.16.16.36.24.6.24h7.36c.24 0 .44-.08.6-.24a.86.86 0 0 0 .26-.6l.56-12.1h1.33l-.58 12.24c-.03.6-.22 1.07-.6 1.42a2 2 0 0 1-1.44.54H4.7Z" fill="#5C5959"/>
</svg>
